<svg version="1.1" id="Layer_1" xmlns="http://www.w3.org/2000/svg" xmlns:xlink="http://www.w3.org/1999/xlink" x="0px" y="0px"
	 width="100%" viewBox="0 0 512 512" enable-background="new 0 0 512 512" xml:space="preserve">
<path fill="#000000" opacity="1.000000" stroke="none" 
	d="
M344.000000,513.000000 
	C230.860825,513.000000 118.221626,512.981384 5.582537,513.084717 
	C1.989024,513.088013 0.890752,512.522522 0.893655,508.584564 
	C1.017343,340.792267 1.016266,172.999863 0.894578,5.207566 
	C0.891881,1.488013 1.797947,0.910285 5.290489,0.912373 
	C173.082825,1.012706 340.875214,1.010812 508.667572,0.922834 
	C512.040161,0.921066 513.117188,1.326794 513.114136,5.165618 
	C512.981812,173.124527 512.985474,341.083557 513.099609,509.042511 
	C513.101990,512.550171 512.292786,513.098633 508.959167,513.090820 
	C454.139679,512.962952 399.319794,513.000000 344.000000,513.000000 
z"/>
<path fill="#FF0015" opacity="1.000000" stroke="none" 
	d="
M367.267273,446.551575 
	C365.080414,445.247955 366.053864,443.127441 366.052002,441.299591 
	C365.989868,379.971039 366.000214,318.642395 366.000000,257.313782 
	C366.000000,255.565689 366.000000,253.817581 366.000000,252.069489 
	C365.773987,252.031128 365.548004,251.992783 365.321991,251.954422 
	C359.897766,265.307861 354.430695,278.644104 349.058777,292.018585 
	C339.654724,315.431946 330.318878,338.872711 320.936340,362.294708 
	C311.615082,385.563660 302.279480,408.826843 292.930573,432.084717 
	C291.230347,436.314392 289.422424,440.500702 287.691254,444.718109 
	C286.989136,446.428497 285.885406,447.059082 283.933411,447.049652 
	C265.935211,446.962860 247.936172,446.955383 229.938126,447.057770 
	C227.898788,447.069366 226.894791,446.228394 226.248001,444.608398 
	C215.143433,416.794952 204.113724,388.951416 192.946808,361.163055 
	C183.353790,337.291260 173.601929,313.483307 163.932816,289.642059 
	C158.918198,277.277435 153.932831,264.900970 148.913559,252.538239 
	C148.826660,252.324219 148.478851,252.216125 147.999969,251.882431 
	C147.999969,253.853729 147.999969,255.649551 147.999969,257.445374 
	C147.999954,318.774017 147.945267,380.102783 148.110138,441.430969 
	C148.122498,446.032532 146.905289,447.169952 142.386642,447.109741 
	C123.058228,446.852081 103.723701,446.916107 84.393211,447.077911 
	C80.966347,447.106628 79.915710,446.298950 79.918495,442.714691 
	C80.014778,318.890900 80.015373,195.067047 79.916832,71.243286 
	C79.913933,67.602409 81.071915,66.900993 84.435143,66.925964 
	C104.599152,67.075706 124.765129,67.053993 144.929626,66.942886 
	C147.999741,66.925980 149.368164,67.780518 150.548233,70.872841 
	C160.991394,98.238991 171.753250,125.483299 182.344162,152.793381 
	C192.287567,178.433853 202.086853,204.130219 212.043137,229.765671 
	C222.295197,256.162689 232.676590,282.509460 242.968521,308.891022 
	C247.514465,320.543793 251.979309,332.228180 256.741852,344.574554 
	C260.480286,338.020782 262.352264,331.344360 264.872528,324.993317 
	C275.556732,298.069031 286.028839,271.059937 296.461792,244.036774 
	C308.065674,213.980820 319.465607,183.846069 331.097839,153.801193 
	C341.793121,126.176254 352.681641,98.626122 363.477325,71.040024 
	C364.570770,68.245987 366.020782,66.828529 369.577789,66.874222 
	C390.405579,67.141823 411.238342,67.022469 432.531677,67.113708 
	C433.990540,68.504959 432.768463,69.827629 433.008972,71.563919 
	C431.581604,84.969170 430.234619,97.950272 427.972961,110.839478 
	C419.655853,158.238449 411.384399,205.645645 403.201019,253.068207 
	C398.641846,279.488342 393.917694,305.881104 389.304749,332.292389 
	C383.345795,366.410309 377.479462,400.544586 371.438934,434.648163 
	C370.725891,438.673889 370.772034,443.027405 367.267273,446.551575 
z"/>
<path fill="#F11E07" opacity="1.000000" stroke="none" 
	d="
M367.406128,446.899750 
	C369.384674,432.559143 371.805847,418.282867 374.287628,404.017120 
	C381.963104,359.897186 389.657898,315.780640 397.352356,271.664001 
	C403.730652,235.093628 410.116211,198.524506 416.504089,161.955795 
	C421.574280,132.930542 426.655121,103.907150 431.718018,74.880630 
	C431.889069,73.899834 431.917786,72.894211 432.022919,71.481918 
	C432.809631,70.964737 433.344971,71.292526 433.428436,72.065346 
	C433.571594,73.391022 433.498566,74.728554 433.498566,76.061119 
	C433.500061,198.186493 433.500061,320.311890 433.498962,442.437256 
	C433.498962,443.603271 433.525909,444.769989 433.225586,446.384216 
	C411.298920,446.878815 389.587708,446.923859 367.406128,446.899750 
z"/>
<path fill="#FF1414" opacity="1.000000" stroke="none" 
	d="
M433.405518,446.667969 
	C433.006561,324.455383 433.005676,202.076950 432.981232,79.698532 
	C432.980682,77.055763 433.387573,74.362137 432.218933,71.423004 
	C432.302368,69.988487 432.571747,68.913284 432.917511,67.515923 
	C434.844330,68.136803 433.953522,69.853424 433.954041,71.171967 
	C434.002594,195.454575 433.999359,319.737183 433.990570,444.019806 
	C433.990509,444.847260 433.866821,445.674713 433.405518,446.667969 
z"/>
</svg>