<?xml version="1.0" encoding="UTF-8"?>
<svg id="Camada_1" data-name="Camada 1" xmlns="http://www.w3.org/2000/svg" viewBox="0 0 646 112.79">
  <defs>
    <style>
      .cls-1 {
        fill: #e62142;
        stroke: #e62142;
        stroke-miterlimit: 10;
        stroke-width: 1.4px;
      }
    </style>
  </defs>
  <path class="cls-1" d="m57.47,104.28c.03-23.92.06-47.84.09-71.76-.13,0-.2,0-.33.01-4.94,19.4-9.8,38.82-14.6,58.26-4.16.38-6.24.57-10.4.95-4.89-19.31-9.73-38.62-14.49-57.96-.13,0-.2,0-.33.01-.01,24.91-.02,49.81-.03,74.72-6.6.71-9.89,1.07-16.49,1.78,0-36.47,0-72.94,0-109.41,9.19,0,13.79-.01,22.98-.02,4.51,18.9,9.07,37.78,13.67,56.66.13,0,.2-.01.33-.02,4.5-18.9,9.04-37.78,13.61-56.66,9.46,0,14.19,0,23.64-.02-.05,33.9-.1,67.79-.15,101.69-7,.69-10.5,1.05-17.5,1.76Z"/>
  <path class="cls-1" d="m111.48,14.68c-.02,11.16-.03,16.69-.05,27.75,10.25-.38,15.37-.56,25.62-.9-.01,5.35-.02,8.02-.03,13.36-10.25.46-15.38.7-25.62,1.21-.02,9.71-.04,19.42-.05,29.14,10.57-.82,21.16-1.58,31.74-2.27-.01,5.38-.02,8.08-.03,13.53-16.43,1.23-32.85,2.67-49.25,4.2.06-33.3.11-66.59.17-99.89,16.42-.01,32.85-.02,49.27-.03-.01,5.45-.02,8.16-.03,13.54-10.58.11-21.16.22-31.74.35Z"/>
  <path class="cls-1" d="m211.25,71.75c1.08,15.35-14.95,22.26-27.34,23.43-13.53,1.28-26.76-6.4-26.92-21.07.05-24.44.09-48.88.14-73.32,6.75,0,10.12,0,16.86,0-.04,24.02-.09,48.04-.13,72.06-.01,6.81,3.79,9.17,9.91,8.87,6.12-.3,9.93-3.01,9.94-9.74.04-23.73.08-47.47.12-71.2,7.01,0,10.52,0,17.53,0-.04,23.66-.07,47.32-.11,70.98Z"/>
  <path class="cls-1" d="m246.73,13.66c-.01,10.34-.02,15.41-.03,25.54,10.26-.11,15.38-.16,25.64-.23,0,4.99,0,7.47-.01,12.46-10.26.1-15.39.16-25.65.31-.01,10.64-.02,15.95-.03,26.8,10.59-.24,21.19-.42,31.78-.55,0,5.07,0,7.63,0,12.79-16.45.23-32.89.63-49.33,1.14.04-30.39.08-60.77.13-91.16,16.42,0,32.85,0,49.27,0,0,5.18,0,7.74,0,12.82-10.58.02-21.17.05-31.75.09Z"/>
  <path class="cls-1" d="m331.58,90.46c-1.52-8.36-2.29-12.45-3.81-20.59-7.75,0-11.62,0-19.37.02-1.52,8.14-2.29,12.24-3.81,20.61-7.02.04-10.53.07-17.55.16,6.59-30,13.47-59.92,20.06-89.92,8.93,0,13.39,0,22.32,0,6.57,29.96,13.46,59.86,20.04,89.82-7.15-.06-10.73-.08-17.88-.1Zm-20.86-32.8c5.89-.02,8.84-.02,14.73-.02-2.38-12.48-4.76-24.96-7.11-37.44-.2,0-.3,0-.5,0-2.35,12.49-4.74,24.97-7.12,37.45Z"/>
  <path class="cls-1" d="m387.12.75c14.44-.79,29.48,7.21,29.13,23.29.02,14.87.04,29.74.06,44.61.43,16.12-14.82,23.58-29.1,22.48-10.07-.21-15.1-.3-25.16-.43-.02-29.98-.04-59.97-.06-89.95,10.05,0,15.08,0,25.13,0Zm-7.54,77.41c2.78.05,4.17.07,6.95.12,8.44.15,12.24-3.29,12.24-10.9-.02-14.19-.03-28.38-.05-42.57,0-7.61-3.82-11.17-12.25-11.2-2.78,0-4.17-.01-6.94-.02.02,21.52.04,43.04.06,64.56Z"/>
  <path class="cls-1" d="m450.8,13.91c.02,10.54.03,15.71.04,26.06,9.92.2,14.88.32,24.81.58,0,5.21.01,7.81.02,13.01-9.92-.35-14.88-.51-24.81-.79.02,13.49.05,26.98.07,40.47-7.02-.34-10.52-.49-17.54-.76-.05-30.57-.1-61.14-.14-91.72,16.15,0,32.29,0,48.44.02,0,5.38.01,8.05.02,13.36-10.31-.09-20.61-.17-30.92-.23Z"/>
  <path class="cls-1" d="m540.21,85.4c.01,5.66.02,8.5.03,14.21-15.58-1.41-31.18-2.67-46.78-3.8-.06-31.67-.12-63.35-.18-95.02,7.01,0,10.52,0,17.53,0,.05,27.48.1,54.97.16,82.45,9.76.67,19.51,1.39,29.26,2.15Z"/>
  <path class="cls-1" d="m551.47,100.64c-.06-33.27-.11-66.55-.17-99.82,7.01,0,10.52,0,17.53.01.05,33.83.1,67.66.15,101.49-7-.69-10.5-1.03-17.51-1.68Z"/>
  <path class="cls-1" d="m644.72,110.25c-7.38-.8-11.08-1.2-18.47-1.99-4.74-12.94-9.52-25.86-14.38-38.76-.13,0-.2-.01-.33-.02-4.46,11.95-8.96,23.87-13.5,35.79-7.26-.76-10.89-1.13-18.16-1.86,7.43-17.33,14.8-34.68,22.07-52.08-6.88-16.87-13.85-33.69-20.88-50.49,7.41,0,11.11,0,18.52.01,4.34,11.25,8.66,22.51,12.92,33.79.13,0,.2,0,.33.01,4.17-11.24,8.3-22.5,12.37-33.78,7.27,0,10.91,0,18.19.01-6.84,17.41-13.77,34.78-20.8,52.11,7.54,19.02,14.87,38.12,22.13,57.25Z"/>
</svg>